<svg width="64" height="64" viewBox="0 0 64 64" fill="none" xmlns="http://www.w3.org/2000/svg">
<rect width="64" height="64" rx="12" fill="#F3F4F6"/>
<path d="M32 20C28.6867 20 26 22.6867 26 26V38C26 41.3133 28.6867 44 32 44C35.3133 44 38 41.3133 38 38V26C38 22.6867 35.3133 20 32 20ZM32 22C34.2067 22 36 23.7933 36 26V38C36 40.2067 34.2067 42 32 42C29.7933 42 28 40.2067 28 38V26C28 23.7933 29.7933 22 32 22Z" fill="#9CA3AF"/>
<path d="M29 29H35V31H29V29Z" fill="#9CA3AF"/>
<path d="M29 33H35V35H29V33Z" fill="#9CA3AF"/>
</svg>